<?xml version="1.0" standalone="no"?>
<!DOCTYPE svg PUBLIC "-//W3C//DTD SVG 20010904//EN"
 "http://www.w3.org/TR/2001/REC-SVG-20010904/DTD/svg10.dtd">
<svg version="1.0" xmlns="http://www.w3.org/2000/svg"
 width="1408.000000pt" height="736.000000pt" viewBox="0 0 1408.000000 736.000000"
 preserveAspectRatio="xMidYMid meet">
<metadata>
Created by potrace 1.16, written by Peter Selinger 2001-2019
</metadata>
<g transform="translate(0.000000,736.000000) scale(0.100000,-0.100000)"
fill="#000000" stroke="none">
<path d="M6146 5562 c-5 -8 -53 -215 -63 -270 -3 -18 -15 -40 -27 -47 -30 -20
-429 -186 -434 -181 -2 3 37 32 87 65 50 34 91 64 91 66 0 3 -21 -4 -47 -14
-496 -197 -504 -201 -534 -272 -17 -43 1 -63 127 -138 119 -72 111 -60 97
-153 -4 -28 0 -44 16 -66 l21 -30 -42 -63 c-42 -66 -143 -207 -258 -364 -97
-131 -164 -234 -157 -242 13 -12 289 41 370 72 14 6 17 1 17 -35 0 -33 -7 -50
-30 -77 -38 -43 -40 -95 -6 -142 13 -17 22 -40 19 -50 -2 -9 -46 -83 -96 -164
-89 -142 -167 -255 -499 -721 -87 -122 -158 -229 -158 -239 0 -14 34 0 171 69
94 47 173 83 176 81 2 -3 -10 -21 -27 -41 -18 -20 -29 -36 -25 -36 10 0 180
105 253 157 35 25 65 43 67 41 3 -2 -5 -42 -16 -89 l-21 -84 22 -57 c23 -63
70 -116 161 -183 47 -35 70 -45 99 -45 74 0 117 31 152 108 10 23 22 42 26 42
4 -1 22 -14 40 -29 32 -27 34 -33 42 -122 5 -52 12 -173 15 -269 4 -96 11
-191 16 -210 18 -73 100 -154 120 -119 4 8 37 55 74 104 103 139 113 160 124
253 5 46 11 86 14 89 3 3 37 -16 75 -41 91 -60 272 -147 389 -186 433 -144
946 -106 1357 101 65 32 150 80 188 106 l69 47 22 -26 c19 -21 29 -25 72 -23
28 1 53 3 58 4 4 0 17 21 29 46 21 43 24 45 66 45 52 0 82 14 82 39 0 11 7 21
15 25 26 9 18 57 -16 92 l-30 31 18 38 c10 21 35 55 57 77 37 37 43 39 144 53
58 8 107 15 109 15 2 0 3 5 3 11 0 9 -27 10 -97 5 -86 -6 -96 -5 -83 8 19 18
168 38 535 71 292 27 393 40 404 51 8 9 -508 -4 -599 -15 -41 -5 -124 -12
-185 -15 -180 -9 -79 9 265 49 173 20 325 38 336 40 24 5 40 33 27 46 -5 5
-95 -1 -201 -13 l-193 -21 -40 39 c-40 39 -59 84 -59 142 0 22 -5 32 -15 32
-9 0 -15 9 -15 21 0 35 -26 5 -45 -52 -9 -27 -20 -49 -25 -49 -17 0 -19 32 -4
56 15 23 15 26 -1 44 -16 17 -17 25 -7 59 7 21 18 43 25 49 34 28 267 44 267
18 0 -25 30 -39 84 -39 50 0 55 -2 67 -30 8 -17 27 -40 42 -51 23 -17 31 -18
47 -8 11 6 32 9 48 6 35 -7 51 10 67 74 12 45 14 47 54 53 54 7 96 39 96 72 1
15 4 29 8 33 16 17 5 49 -29 80 -19 19 -42 34 -49 34 -11 0 -13 11 -8 49 8 67
-2 99 -30 103 -14 2 -23 11 -25 25 -6 44 -26 49 -124 29 l-91 -19 -17 23 c-16
22 -22 23 -96 17 -44 -3 -94 -9 -112 -13 l-34 -7 31 62 c17 33 33 61 34 61 37
0 243 32 250 39 5 5 7 17 3 26 -4 12 -14 15 -38 11 -18 -3 -88 -15 -155 -26
-66 -11 -137 -20 -157 -20 -35 0 -36 1 -36 40 0 24 5 42 13 44 6 2 65 12 129
21 117 17 154 33 130 57 -7 7 -47 4 -138 -11 -70 -12 -130 -18 -135 -14 -6 7
-29 154 -29 187 0 5 19 -9 43 -31 43 -43 100 -73 137 -73 11 0 29 9 40 20 16
16 28 19 59 14 37 -6 40 -4 56 25 27 54 30 147 6 216 -12 32 -21 61 -21 62 0
2 10 3 23 3 73 0 178 66 204 129 14 33 14 36 -8 54 -22 18 -22 19 -5 48 16 27
16 32 2 54 -30 46 -99 76 -183 82 l-78 6 0 71 c-1 52 -7 85 -24 123 -32 73
-49 86 -91 70 -24 -9 -34 -9 -37 -1 -11 31 -30 46 -52 39 -55 -17 -139 -117
-161 -192 l-13 -42 -29 15 c-16 8 -60 18 -98 21 l-68 6 -55 66 c-31 36 -69 79
-85 94 -27 26 -29 32 -27 98 2 44 8 76 17 87 27 31 30 43 16 59 -7 9 -13 34
-13 57 0 34 -5 43 -33 62 -18 12 -50 25 -72 29 -33 6 -40 11 -45 36 -8 37 -51
89 -74 89 -9 0 -23 -6 -30 -12 -11 -10 -14 -10 -18 0 -14 38 -94 -26 -108 -87
-6 -29 -10 -31 -50 -31 -23 0 -57 -6 -75 -14 -29 -12 -37 -11 -64 5 -105 61
-377 139 -554 158 -251 27 -495 2 -733 -75 l-105 -34 -176 90 c-97 50 -179 90
-182 90 -3 0 -7 -3 -10 -8z m2052 -123 l13 -20 18 23 c17 20 21 21 36 8 10 -8
26 -33 36 -55 19 -42 15 -86 -10 -133 -15 -27 -25 -29 -16 -2 9 30 -10 24 -26
-7 l-14 -28 -3 39 c-2 24 1 42 10 47 7 4 9 11 6 14 -13 14 -28 -7 -28 -40 0
-37 -14 -54 -24 -29 -3 9 -6 29 -6 45 0 16 -5 29 -11 29 -10 0 -7 -29 8 -85 3
-13 -7 -6 -30 20 -20 22 -39 52 -42 66 -7 31 17 98 42 117 22 16 26 15 41 -9z
m-1876 -80 c45 -23 99 -52 121 -66 35 -22 37 -26 21 -37 -20 -15 -20 -15 61
-56 34 -17 56 -37 70 -62 18 -35 19 -40 4 -63 -8 -14 -31 -33 -50 -43 -40 -20
-140 -142 -248 -302 -112 -166 -144 -210 -153 -210 -11 0 -10 18 2 25 6 3 10
15 10 27 0 17 -2 18 -15 8 -19 -16 -19 -5 1 54 28 81 8 62 -40 -38 -25 -53
-48 -96 -51 -96 -3 0 1 13 10 30 20 38 19 53 -1 16 -13 -22 -18 -26 -25 -15
-5 8 -6 28 -3 44 4 23 3 27 -6 15 -14 -19 -9 2 36 176 19 73 34 134 34 138 0
3 -17 -1 -37 -10 -21 -9 -92 -38 -158 -65 -124 -51 -153 -72 -134 -96 18 -21
-9 -25 -97 -16 -78 9 -80 10 -187 88 l-107 80 36 3 c29 3 35 7 31 21 -4 15 2
18 37 17 44 0 270 72 536 172 l155 58 30 122 c17 67 31 122 33 122 1 0 39 -18
84 -41z m1065 0 c166 -22 421 -105 493 -161 14 -10 46 -35 72 -54 43 -32 47
-38 37 -57 -7 -12 -13 -23 -14 -25 -1 -1 -46 19 -101 44 -124 58 -303 117
-431 143 -198 39 -397 36 -635 -10 l-108 -21 -41 33 -42 33 31 13 c42 17 195
51 280 62 97 12 368 13 459 0z m1016 -30 c12 -6 32 -21 45 -32 21 -19 21 -22
6 -45 -15 -23 -15 -26 0 -34 30 -17 19 -48 -24 -66 -44 -19 -49 -28 -21 -37
18 -6 36 -33 27 -42 -2 -3 -16 3 -31 13 -23 15 -30 16 -47 5 -17 -11 -22 -10
-29 1 -15 22 -10 36 14 41 16 3 13 5 -10 6 -34 1 -44 17 -18 27 8 4 12 10 9
15 -3 5 2 9 10 9 9 0 16 7 16 15 0 17 -16 20 -25 5 -3 -5 -13 -10 -22 -10 -14
0 -13 3 3 21 10 12 32 28 49 37 16 8 25 17 18 19 -6 2 -23 -3 -37 -12 l-25
-17 9 32 c17 58 39 71 83 49z m-297 -26 c16 -16 36 -36 44 -47 13 -16 11 -16
-20 3 -19 11 -44 21 -55 21 -15 -1 -13 -4 10 -15 17 -7 41 -23 55 -35 l25 -21
-42 3 c-49 4 -55 -3 -15 -19 l27 -10 -27 -11 c-38 -15 -35 -23 5 -15 30 6 31
5 17 -12 -16 -20 -19 -20 40 3 13 5 13 3 2 -10 -9 -11 -10 -18 -2 -23 16 -10
13 -18 -27 -78 l-36 -55 -48 26 c-56 31 -63 56 -24 92 14 13 25 27 25 30 0 4
-18 10 -40 14 -23 4 -53 18 -72 36 -30 26 -32 31 -20 50 7 12 10 29 7 39 -4
14 4 24 37 40 59 29 98 27 134 -6z m192 -218 c7 -37 22 -46 45 -30 30 21 34
19 53 -17 22 -42 14 -144 -14 -190 l-21 -33 87 0 c54 0 96 -5 110 -13 24 -14
24 -14 4 -35 -27 -30 -34 -57 -21 -73 9 -11 4 -17 -24 -29 -43 -18 -52 -31
-48 -69 3 -28 2 -28 -41 -24 -23 3 -52 8 -63 13 -18 8 -18 7 -7 -7 7 -9 16
-41 19 -71 5 -45 1 -63 -18 -102 -25 -51 -44 -64 -62 -46 -18 18 -44 13 -50
-10 -5 -19 -7 -19 -35 -5 -42 22 -101 93 -108 132 -7 38 -1 60 32 117 l24 42
0 -40 c0 -30 3 -36 10 -25 5 8 10 27 10 41 0 14 3 28 6 32 9 8 74 -45 74 -60
0 -7 4 -13 10 -13 5 0 6 7 3 17 -4 11 -3 14 5 9 7 -4 12 -3 12 3 0 5 -4 13
-10 16 -19 12 -11 26 9 15 25 -13 41 -13 41 0 0 6 -4 10 -10 10 -5 0 -24 9
-42 21 l-33 21 58 -5 c63 -4 78 8 22 19 -42 8 -45 28 -7 43 26 10 26 11 -8 6
-38 -6 -40 -9 23 37 11 9 16 20 11 31 -8 22 -22 22 -20 0 1 -12 -8 -17 -32
-19 l-33 -2 36 44 c51 62 34 55 -31 -13 -58 -61 -61 -59 -38 20 3 9 1 17 -5
17 -6 0 -11 -10 -11 -23 0 -13 -6 -32 -14 -43 -14 -18 -16 -16 -35 28 -11 25
-17 56 -14 67 3 12 1 21 -6 21 -6 0 -11 15 -11 33 0 88 154 218 168 142z
m-287 -90 c24 -9 56 -28 72 -43 24 -23 27 -32 23 -69 -3 -27 0 -46 9 -53 10
-8 14 -7 18 2 2 7 4 1 3 -14 l-1 -27 -37 36 c-46 45 -49 36 -6 -18 39 -49 31
-60 -15 -20 -19 17 -37 28 -40 24 -4 -3 10 -21 31 -40 25 -23 29 -30 14 -23
-37 18 -37 3 0 -17 l33 -18 -58 -3 c-54 -3 -58 -5 -55 -25 2 -17 9 -21 28 -19
14 1 36 0 49 -3 21 -5 22 -8 9 -23 -9 -9 -18 -26 -20 -37 -3 -11 -9 -29 -14
-40 -7 -18 -6 -18 9 -6 9 7 17 22 17 32 0 10 9 23 20 29 16 9 20 8 20 -5 0
-22 -38 -95 -50 -95 -5 0 -15 -12 -22 -27 -18 -38 -72 -63 -135 -63 l-53 0 0
35 c0 33 -2 35 -35 35 -30 0 -35 3 -35 24 0 40 17 73 61 121 27 29 52 47 75
51 44 8 51 20 15 27 -64 13 -121 91 -121 166 0 39 2 41 29 41 25 0 30 5 36 33
4 17 9 35 12 40 7 12 68 8 114 -8z m1009 -55 c7 -16 15 -30 17 -30 3 0 19 10
36 22 l30 22 16 -24 c54 -79 67 -198 30 -259 l-21 -35 -18 24 c-17 23 -18 23
-28 3 -6 -11 -9 -23 -6 -26 6 -6 -72 -117 -82 -117 -6 0 4 112 13 143 4 16 2
17 -15 8 -25 -13 -40 3 -16 17 11 6 13 11 5 16 -6 4 -15 5 -20 2 -13 -8 -21
-46 -9 -46 11 0 2 -74 -12 -100 -11 -19 -50 68 -50 110 0 20 -6 31 -20 35 -25
8 -27 68 -5 120 16 40 111 145 130 145 7 0 18 -13 25 -30z m-274 -181 c54 -14
121 -83 102 -106 -6 -7 -19 -11 -29 -8 -24 8 -24 -2 0 -23 11 -10 27 -34 35
-56 14 -33 14 -37 1 -32 -42 17 -47 16 -20 -4 l30 -22 -31 6 c-18 3 -45 8 -60
12 -26 7 -28 6 -15 -9 7 -10 25 -17 40 -18 14 -1 37 -5 51 -10 17 -6 3 -8 -47
-5 -54 2 -73 0 -73 -9 0 -8 8 -11 20 -8 11 3 32 2 47 -2 27 -6 27 -7 9 -21
-22 -16 -72 -19 -80 -5 -3 5 -20 11 -38 14 -102 16 -128 33 -168 109 -28 52
-25 65 16 78 36 12 36 13 30 57 -6 42 -5 45 27 58 39 17 94 19 153 4z m-1992
-134 c150 -70 206 -108 206 -140 0 -13 -8 -30 -19 -37 -10 -7 -25 -26 -33 -43
-23 -43 -132 -412 -157 -528 -24 -110 -50 -169 -84 -192 -34 -22 -81 -29 -107
-15 -20 11 -25 9 -40 -10 -23 -31 -40 -23 -94 46 -24 32 -73 80 -108 107 -35
27 -54 47 -43 43 15 -4 13 -1 -7 14 -14 11 -37 30 -50 41 l-23 20 30 -14 c73
-35 77 -27 12 23 -37 29 -66 55 -63 57 6 7 243 -97 283 -124 19 -13 38 -22 41
-19 9 10 102 531 102 573 0 16 -6 23 -19 23 -10 0 -108 -29 -218 -65 -159 -52
-209 -72 -252 -104 -30 -22 -59 -37 -65 -34 -6 4 -32 22 -57 40 -26 18 -51 33
-58 33 -6 0 -11 5 -11 12 0 6 -11 26 -25 44 -14 18 -25 35 -25 37 0 3 16 8 35
11 20 4 55 15 79 25 23 11 173 63 332 116 159 54 293 101 299 106 14 13 13 13
139 -46z m2611 19 c18 -8 42 -26 54 -38 l22 -24 -20 -33 c-26 -43 -26 -46 4
-53 38 -10 31 -39 -19 -83 -51 -45 -101 -63 -176 -63 -50 0 -52 -1 -38 -17 8
-10 23 -36 34 -58 25 -52 27 -189 3 -222 -14 -21 -17 -21 -43 -8 -38 20 -41
19 -54 -10 -23 -50 -109 -15 -175 70 -37 49 -38 51 -35 130 1 45 -1 86 -5 92
-7 11 17 43 33 43 12 0 33 -58 26 -75 -3 -9 0 -15 11 -15 12 0 14 7 10 38 -3
20 -9 48 -13 61 -6 21 -5 23 17 16 13 -4 38 -20 55 -37 27 -25 32 -27 44 -13
7 8 20 15 29 15 11 1 7 8 -14 25 l-30 25 39 -7 c28 -4 37 -3 32 5 -4 7 -19 12
-34 13 -24 0 -25 1 -7 9 17 8 16 9 -10 11 -16 1 -41 1 -54 1 -49 -3 -4 19 53
25 31 3 59 10 62 14 6 10 -1 11 -81 9 l-60 -1 40 41 c22 22 45 38 51 36 23 -9
23 7 1 24 -12 10 -20 20 -17 22 46 37 80 48 153 48 51 0 91 -6 112 -16z
m-3569 -26 c55 -26 94 -70 94 -109 0 -16 1 -32 2 -36 1 -5 -11 -10 -27 -13
-23 -4 -45 -28 -109 -118 -56 -78 -95 -121 -126 -140 -25 -16 -51 -36 -59 -45
-7 -9 -19 -17 -26 -17 -6 0 -20 -9 -30 -20 -10 -11 -24 -20 -31 -20 -7 0 -65
-30 -129 -66 -64 -37 -118 -64 -121 -62 -2 3 16 27 42 54 140 146 387 538 347
551 -5 2 -18 9 -27 16 -16 11 -15 14 5 36 20 22 27 23 86 17 36 -4 85 -16 109
-28z m3030 -193 c-33 -14 -68 -25 -79 -25 -11 0 -17 -5 -14 -12 2 -7 11 -11
18 -9 55 15 133 31 141 29 5 -2 -9 -23 -32 -48 -36 -39 -39 -45 -25 -59 13
-13 17 -12 38 7 13 12 26 22 30 22 6 0 1 -67 -9 -116 -5 -29 -68 -66 -83 -51
-6 6 -11 19 -11 28 0 9 -7 22 -15 29 -12 10 -15 9 -15 -7 0 -11 -14 -26 -35
-37 -33 -18 -34 -20 -19 -38 21 -22 38 -24 30 -2 -7 19 12 47 25 38 15 -9 10
-71 -6 -78 -8 -3 -15 -11 -15 -17 0 -9 4 -9 14 0 17 14 29 0 20 -23 -7 -19
-64 -63 -98 -76 -31 -12 -99 14 -157 61 -22 17 -36 24 -33 16 3 -9 -4 -22 -18
-31 -12 -9 -17 -16 -11 -16 7 0 15 5 18 10 9 14 28 13 49 -3 17 -12 16 -15
-15 -29 -31 -16 -35 -15 -79 7 -26 13 -62 36 -81 50 -27 22 -27 20 5 -9 63
-58 111 -76 183 -69 43 4 67 2 78 -7 24 -20 6 -32 -24 -14 -26 15 -32 15 -107
-6 -43 -12 -91 -29 -106 -36 -15 -8 -39 -14 -54 -14 -25 0 -26 1 -12 22 19 28
38 34 38 12 0 -13 3 -15 11 -7 22 22 1 80 -41 113 -26 20 -40 27 -40 18 0 -8
-18 -32 -40 -53 l-41 -40 33 -27 c28 -23 31 -29 18 -38 -8 -6 -25 -9 -37 -7
-14 3 -23 -1 -23 -9 0 -15 -47 -31 -112 -37 -47 -4 -48 -4 -48 24 0 16 11 39
25 55 14 15 25 32 25 38 0 15 -113 36 -202 37 -40 0 -82 4 -93 8 -29 12 26 20
173 28 123 6 123 6 138 35 8 16 12 33 9 38 -7 12 41 84 82 122 28 27 135 67
183 69 25 0 25 0 3 11 -16 8 -34 6 -69 -6 -54 -18 -80 -8 -52 20 16 16 43 11
33 -7 -15 -23 20 -5 60 32 l45 41 89 -4 c49 -2 95 -9 103 -15 9 -8 14 -35 15
-74 1 -34 7 -67 13 -73 13 -13 61 3 68 23 3 10 0 12 -12 8 -9 -4 -23 -10 -31
-13 -12 -5 -15 3 -15 44 0 42 6 58 33 94 30 39 38 44 88 49 31 3 64 11 75 17
10 6 28 11 39 11 11 0 -7 -11 -39 -24z m-646 -94 c55 -23 61 -37 17 -45 -49
-9 -111 -66 -126 -115 -6 -23 -9 -45 -7 -50 7 -11 -18 -21 -54 -21 -24 0 -29
5 -37 38 -8 35 -11 38 -61 47 l-52 10 52 51 c57 56 81 70 143 90 53 17 72 16
125 -5z m-462 -65 c15 -8 38 -33 51 -56 21 -38 22 -46 12 -103 -11 -62 -34
-100 -49 -82 -5 6 -14 30 -21 53 -16 56 -22 51 -11 -8 5 -25 6 -47 3 -50 -5
-5 -47 40 -71 76 -12 17 -12 17 -9 -9 5 -34 -12 -31 -30 4 -16 30 -17 96 -2
137 10 28 14 31 41 25 22 -4 33 -2 40 10 11 21 12 21 46 3z m-1398 -25 c80
-22 123 -56 136 -108 11 -41 -32 -73 -97 -73 -28 0 -58 4 -69 10 -12 6 -34 5
-71 -6 -184 -51 -378 -96 -434 -99 -16 -1 -40 -5 -52 -9 -50 -16 -18 7 60 45
45 22 70 38 55 36 -16 -2 -28 -1 -28 2 0 3 77 40 171 81 94 41 175 81 181 88
8 9 6 17 -6 30 -9 10 -16 22 -16 27 0 11 83 -1 170 -24z m1620 -99 c0 -18 9
-37 25 -50 45 -39 42 -41 -117 -57 -32 -4 -58 -4 -58 -1 0 3 5 17 12 31 9 20
9 28 0 34 -9 5 -8 13 4 30 20 28 48 40 97 40 34 1 37 -1 37 -27z m-340 -87
c22 -23 22 -25 4 -25 -10 -1 -2 -7 20 -15 41 -14 63 -31 54 -40 -3 -3 -17 -1
-32 5 -27 10 -73 13 -48 3 6 -2 9 -10 5 -15 -4 -7 2 -9 16 -5 13 3 30 3 39 -1
12 -5 7 -8 -17 -12 -19 -3 -36 -11 -39 -19 -4 -11 7 -12 57 -6 49 6 66 4 79
-8 9 -8 35 -20 57 -26 22 -6 63 -25 90 -41 l50 -31 -55 4 c-30 2 -63 7 -72 11
-15 7 -18 3 -18 -21 0 -19 -10 -39 -28 -56 -28 -27 -31 -27 -108 -20 l-79 8 0
60 c1 33 4 67 8 75 6 13 1 15 -32 12 -76 -7 -158 39 -134 76 7 12 7 22 0 34
-22 34 44 77 119 78 31 0 46 -6 64 -25z m418 -91 c23 -7 1 -26 -24 -20 -17 5
-24 2 -24 -9 0 -9 8 -14 21 -12 12 1 24 -4 26 -10 6 -16 -16 -16 -67 -1 -22 7
-40 18 -40 25 0 19 -21 27 -31 12 -15 -23 -11 -26 61 -50 39 -12 69 -28 67
-33 -5 -14 -62 -8 -106 10 -43 18 -120 75 -121 90 0 10 206 9 238 -2z m801
-132 c21 -41 38 -126 36 -182 -1 -33 -30 -125 -45 -143 -4 -4 -19 -3 -33 2
l-27 11 0 115 c0 82 -5 126 -16 155 -15 38 -15 42 1 60 29 33 62 26 84 -18z
m-213 -6 c19 -14 19 -15 -3 -38 -21 -22 -23 -34 -24 -144 -1 -116 -1 -118 -16
-84 -8 19 -23 65 -32 102 -15 61 -18 67 -38 62 -18 -5 -23 -1 -29 19 -8 35 0
45 60 73 60 28 57 28 82 10z m-2988 -120 c116 -59 200 -122 218 -164 10 -23 7
-31 -27 -75 -22 -27 -39 -52 -39 -55 0 -20 -476 -481 -532 -516 -18 -11 17 28
77 88 103 101 83 97 -36 -8 -117 -104 -162 -139 -146 -116 9 13 17 28 17 32 0
9 -143 -87 -200 -134 -61 -50 -53 -30 20 50 180 195 442 571 546 784 l27 56
-31 48 c-18 26 -32 51 -32 56 0 17 34 6 138 -46z m2777 23 c19 -17 35 -36 35
-43 0 -6 34 -58 75 -116 57 -79 75 -112 75 -137 0 -27 -4 -33 -21 -33 -31 0
-98 60 -124 111 -13 25 -31 52 -41 60 -16 13 -17 5 -13 -131 l4 -145 -58 -9
c-31 -5 -60 -6 -63 -3 -4 4 1 26 10 50 17 45 22 132 8 141 -5 3 -7 53 -4 112
5 106 5 106 -17 99 -22 -7 -51 9 -51 27 0 14 81 48 117 48 22 0 44 -10 68 -31z
m-465 -54 c0 -9 -10 -26 -23 -39 -13 -13 -27 -46 -35 -83 -7 -34 -22 -87 -33
-120 -26 -72 -34 -113 -23 -113 5 0 23 9 39 20 40 26 45 25 45 -9 0 -80 -26
-102 -137 -116 -48 -6 -53 -5 -53 12 0 11 14 32 30 48 24 23 30 37 30 69 0 36
6 66 35 194 4 16 1 22 -12 22 -25 0 -77 66 -60 77 65 42 197 68 197 38z m-272
-66 c70 -34 99 -65 108 -115 10 -53 -22 -89 -170 -191 l-46 -33 20 -40 c22
-43 19 -61 -17 -91 -14 -13 -93 -39 -117 -39 -12 0 -5 32 15 76 17 35 21 57
17 102 -3 31 0 95 6 142 l11 85 39 3 c48 4 57 -8 54 -70 -2 -58 3 -64 35 -44
48 32 68 110 38 155 -14 22 -102 26 -139 7 -29 -15 -35 -15 -61 -2 -26 14 -41
34 -41 57 0 14 60 27 126 28 49 1 73 -5 122 -30z m-607 -10 c27 -19 40 -48 22
-49 -5 -1 -21 -12 -38 -25 -24 -20 -27 -27 -16 -34 20 -13 -1 -292 -24 -328
-20 -30 -70 -52 -135 -60 -39 -4 -50 -2 -61 13 -8 11 -27 27 -42 37 -15 10
-25 22 -23 26 3 4 42 11 86 14 45 4 85 9 91 12 5 4 9 67 9 141 0 133 0 134
-23 134 -13 0 -32 7 -43 15 -18 15 -18 16 11 40 31 26 134 84 148 85 5 0 22
-9 38 -21z m-656 -126 c104 -65 193 -125 198 -135 8 -12 5 -24 -15 -50 -14
-19 -28 -45 -30 -59 -5 -38 -42 -36 -101 5 -29 20 -86 61 -127 91 -41 31 -85
63 -98 72 -21 15 -28 12 -150 -46 -70 -33 -138 -61 -152 -61 -16 1 -46 20 -82
54 l-57 52 87 37 c48 21 139 64 202 96 63 32 120 59 126 60 6 0 96 -52 199
-116z m1776 106 c27 -14 79 -88 79 -111 0 -10 -11 -24 -26 -30 -24 -11 -25
-16 -22 -65 3 -52 -5 -70 -17 -35 -3 9 -12 25 -19 35 -13 17 -16 16 -62 -13
-26 -16 -57 -30 -67 -30 -16 0 -19 5 -13 31 9 46 43 89 71 89 l23 0 -17 56
c-10 30 -22 55 -27 55 -5 0 -26 -53 -47 -118 -36 -112 -39 -146 -22 -199 6
-20 3 -22 -40 -26 -54 -4 -53 -17 -12 147 14 55 28 119 32 142 8 50 12 54 85
69 71 16 78 16 101 3z m1299 -28 c0 -13 8 -21 23 -23 18 -2 23 -10 25 -45 3
-34 -2 -47 -29 -77 -17 -20 -40 -36 -51 -36 -19 0 -19 1 -5 24 27 40 5 39 -30
-1 -25 -29 -32 -33 -30 -18 1 11 6 25 10 32 4 6 3 14 -2 17 -5 3 -7 15 -4 26
4 15 2 19 -10 14 -9 -3 -18 -18 -20 -32 -4 -25 -4 -25 -6 4 -2 51 17 89 57
112 47 27 72 28 72 3z m-206 -12 c33 -16 66 -76 47 -88 -7 -5 -10 -14 -7 -20
4 -6 3 -11 -3 -11 -5 0 -14 8 -20 17 -5 10 -12 15 -15 12 -4 -3 3 -18 15 -32
23 -30 15 -36 -13 -10 -10 9 -21 13 -26 9 -4 -4 1 -13 11 -20 24 -18 21 -29
-4 -21 -33 11 -13 -13 24 -29 l32 -14 -40 6 c-27 4 -51 17 -77 43 -32 31 -38
44 -38 78 0 35 3 41 21 41 13 0 20 6 18 18 -1 9 -1 20 0 25 2 11 47 9 75 -4z
m-1892 -119 c13 -17 33 -43 45 -58 20 -26 20 -29 5 -49 -10 -12 -26 -23 -37
-25 -16 -3 -19 -10 -17 -38 3 -32 2 -34 -13 -19 -14 14 -21 13 -75 -14 -33
-17 -63 -27 -67 -24 -9 9 18 85 38 111 18 21 18 21 33 1 15 -19 15 -18 10 15
-7 40 -32 85 -42 75 -9 -8 -38 -90 -64 -180 -17 -56 -18 -76 -9 -99 6 -16 10
-31 8 -32 -1 -1 -24 -5 -51 -9 -40 -5 -48 -4 -43 8 5 12 55 177 90 292 11 36
17 42 62 57 76 25 100 23 127 -12z m2206 -60 c35 -22 42 -53 15 -69 -15 -9
-16 -12 -4 -20 22 -14 6 -38 -34 -51 -47 -15 -71 -8 -120 37 -26 24 -30 31
-13 20 15 -9 35 -14 44 -10 15 6 15 7 -4 14 -26 10 -29 26 -4 32 9 2 -1 2 -23
0 l-40 -4 25 20 c15 12 33 18 44 15 13 -4 16 -2 11 6 -20 32 54 39 103 10z
m-340 -36 c21 -6 21 -7 5 -21 -16 -13 -15 -14 16 -10 l35 4 -32 -28 c-42 -38
-22 -48 25 -12 l36 28 -7 -30 c-4 -16 -8 -30 -9 -30 -1 -1 -17 -13 -35 -28
-25 -20 -45 -27 -78 -27 -40 0 -44 2 -44 25 0 18 -7 26 -25 31 -33 8 -32 26 6
69 31 35 56 42 107 29z m-2908 -21 c46 -30 80 -67 80 -85 0 -10 -11 -40 -24
-67 -42 -82 -137 -434 -138 -508 0 -28 4 -27 -52 -3 -40 17 -50 18 -83 6 -39
-13 -63 -44 -63 -84 0 -26 -14 -27 175 19 140 33 165 43 165 62 0 7 -22 45
-49 85 -27 39 -46 72 -41 72 4 0 13 -7 20 -15 7 -8 42 -36 79 -61 93 -66 151
-124 151 -151 0 -14 -17 -41 -44 -67 -35 -36 -54 -46 -91 -52 -79 -11 -283 16
-270 36 6 10 -49 30 -82 30 -22 0 -24 -4 -22 -38 2 -21 0 -42 -3 -47 -3 -6
-18 -97 -33 -203 -35 -247 -45 -281 -40 -127 4 117 4 118 -9 60 -7 -34 -15
-54 -18 -45 -4 8 -8 -7 -9 -35 -2 -50 -2 -50 -9 15 l-6 65 -8 -93 c-5 -51 -10
-91 -11 -90 -2 2 -9 133 -16 291 -11 252 -15 288 -29 284 -8 -3 -36 -13 -62
-23 l-48 -18 -35 34 c-19 19 -35 37 -35 41 0 3 20 4 44 2 27 -3 63 1 95 12
l51 17 0 74 0 74 -45 -22 c-44 -21 -45 -23 -45 -70 0 -38 -4 -50 -21 -59 -17
-9 -25 -7 -45 12 -13 12 -28 39 -33 58 -13 50 -34 308 -26 321 8 14 48 13 63
-2 18 -18 24 -4 11 25 -11 24 -7 32 39 94 76 102 82 107 142 99 28 -4 61 -12
74 -18 21 -9 43 -1 152 51 137 65 165 71 204 44z m3050 -86 c0 -10 4 -16 9
-13 4 3 7 17 6 31 -4 32 5 32 36 -1 19 -20 24 -35 22 -70 -1 -25 -9 -57 -18
-70 -16 -25 -17 -25 -36 -8 -18 16 -20 16 -38 0 -25 -23 -39 -14 -62 39 -21
48 -18 70 12 78 10 3 19 13 19 22 0 10 5 13 12 9 7 -5 9 -2 5 8 -3 9 -3 19 1
23 9 9 32 -25 32 -48z m-3744 -168 c-64 -167 -67 -175 -50 -154 l17 20 -7 -20
c-4 -11 -21 -72 -38 -135 -25 -90 -32 -136 -32 -215 -1 -103 -7 -125 -32 -125
-19 0 -99 74 -125 116 -21 34 -21 35 -4 152 12 80 15 145 11 205 -3 48 -3 87
0 87 17 0 88 -67 99 -93 l13 -30 15 24 c37 59 106 178 128 219 32 63 36 29 5
-51z m3069 81 c4 -6 -11 -18 -34 -27 -31 -12 -41 -21 -41 -39 0 -42 11 -54 46
-54 44 0 43 -17 -2 -36 -32 -13 -35 -18 -29 -42 9 -37 10 -37 48 -13 19 11 42
21 51 21 30 0 16 -30 -26 -57 -24 -15 -53 -35 -64 -46 -12 -10 -24 -15 -27
-10 -10 19 -19 74 -27 168 -4 55 -9 106 -11 114 -6 23 103 42 116 21z m-180
-34 c66 -28 70 -84 11 -130 l-35 -26 44 -45 c25 -24 45 -49 45 -55 0 -21 -47
-9 -84 22 l-38 31 4 -38 c3 -43 -11 -55 -36 -30 -12 13 -16 37 -16 111 0 52 4
94 9 94 13 0 33 -28 28 -38 -3 -4 -2 -13 2 -20 5 -9 19 -3 46 21 22 19 35 38
31 45 -10 17 -71 25 -94 13 -15 -8 -23 -6 -36 8 -9 9 -16 23 -16 29 0 23 85
28 135 8z m-153 -52 c4 -21 7 -72 7 -113 1 -91 -23 -141 -69 -141 -56 0 -89
74 -93 203 -2 58 1 72 14 75 13 2 17 -11 21 -81 6 -97 20 -130 51 -125 38 5
47 43 32 133 -9 59 -9 82 -1 87 20 13 31 2 38 -38z m-192 -18 c0 -17 -7 -26
-26 -30 -25 -7 -26 -9 -20 -54 17 -125 19 -162 8 -162 -12 0 -37 77 -50 151
-7 38 -11 44 -32 44 -27 0 -39 28 -18 42 21 13 81 31 111 32 22 1 27 -3 27
-23z m-279 -126 c3 -105 -2 -142 -21 -165 -13 -16 -46 -20 -75 -9 -26 10 -54
78 -67 157 -12 78 -8 107 15 107 10 0 16 -20 20 -67 4 -38 13 -88 20 -113 12
-42 16 -45 45 -44 18 1 29 -2 26 -7 -3 -5 -12 -9 -20 -9 -8 0 -14 -4 -14 -10
0 -16 26 -11 44 9 13 14 14 24 7 44 -5 14 -13 64 -17 112 -5 69 -4 89 7 96 23
14 28 -2 30 -101z m-211 33 c0 -16 -5 -35 -10 -43 -9 -13 -13 -11 -29 10 -17
22 -21 23 -38 10 -50 -40 -56 -83 -18 -128 33 -39 57 -44 96 -20 23 14 35 16
43 8 14 -14 -2 -40 -42 -63 -27 -16 -34 -16 -64 -4 -68 28 -122 127 -102 185
14 39 69 72 120 72 41 0 44 -2 44 -27z m-378 -60 l-5 -48 22 20 c13 11 30 32
39 47 17 29 52 38 52 14 0 -7 -16 -33 -35 -57 -19 -24 -35 -46 -35 -50 0 -3
27 -24 60 -47 33 -24 60 -49 60 -58 0 -30 -30 -26 -78 10 -43 33 -69 44 -66
28 1 -4 5 -26 9 -49 6 -39 5 -43 -14 -43 -26 0 -28 5 -41 95 -25 169 -25 159
6 172 16 6 30 11 30 12 1 1 -1 -20 -4 -46z m-82 11 c0 -21 -24 -44 -46 -44
-22 0 -25 -4 -22 -32 3 -31 5 -33 36 -30 42 5 41 -13 -3 -39 -19 -12 -35 -27
-35 -34 0 -25 22 -28 51 -6 37 27 49 27 49 -3 0 -15 -13 -35 -34 -54 -32 -28
-73 -49 -81 -40 -1 1 -8 48 -14 103 -6 55 -13 114 -17 132 -6 30 -4 33 27 42
39 11 89 14 89 5z m-175 -34 c0 -8 -10 -19 -22 -25 -13 -5 -30 -26 -38 -45 -9
-19 -20 -43 -25 -52 -6 -10 -10 -20 -10 -23 0 -10 79 -5 85 5 3 6 -1 10 -10
10 -24 0 -9 17 20 22 21 4 29 0 40 -23 8 -15 15 -42 15 -59 0 -35 -12 -41
-109 -61 -85 -16 -131 -2 -171 53 -58 79 -30 147 80 197 54 25 145 26 145 1z
m1204 -254 c43 -23 63 -60 53 -99 -8 -30 -9 -31 -16 -9 -11 33 -26 27 -19 -8
6 -33 -10 -41 -26 -13 -5 10 -13 14 -17 10 -4 -4 3 -18 16 -32 23 -24 16 -37
-7 -14 -6 6 -22 16 -35 23 -29 14 -62 79 -53 106 5 15 12 19 31 14 20 -5 24
-2 24 15 0 25 11 26 49 7z m194 -44 c-2 -17 2 -22 22 -22 30 0 31 -11 6 -66
-14 -31 -26 -43 -47 -47 -16 -3 -40 -8 -54 -12 -23 -6 -23 -5 3 10 32 18 30
33 -1 16 -35 -18 -37 -12 -8 18 15 16 23 32 18 35 -5 3 -17 -5 -26 -19 -9 -14
-21 -25 -27 -25 -7 0 -6 6 2 17 12 15 12 16 -3 10 -22 -8 -22 -6 -4 38 9 21
29 41 53 54 47 25 69 23 66 -7z m-1711 -59 c17 -15 19 -15 33 3 11 15 18 17
32 8 43 -25 69 -127 40 -156 -8 -7 -16 -20 -19 -28 -4 -10 -11 -4 -21 20 -10
23 -12 39 -6 47 7 7 6 14 -1 18 -16 10 -24 -24 -11 -51 18 -41 12 -51 -10 -15
-22 36 -38 37 -19 1 11 -20 10 -21 -8 -11 -40 22 -52 42 -52 89 0 49 9 92 18
92 3 0 14 -8 24 -17z m1474 -62 c13 -10 20 -21 17 -25 -3 -3 1 -6 10 -6 9 0
19 -5 22 -11 5 -7 -8 -9 -41 -5 l-49 5 40 -14 c36 -12 38 -14 18 -21 -13 -3
-23 -13 -23 -20 0 -12 6 -12 33 2 l32 16 -29 -31 c-26 -27 -37 -31 -81 -31
-30 0 -59 6 -71 15 -18 14 -18 16 -1 29 15 12 15 15 2 26 -18 15 -19 21 -2 43
9 14 71 43 95 47 2 0 15 -8 28 -19z m-1218 -7 c13 -4 22 -14 22 -27 0 -11 7
-25 16 -32 15 -10 15 -15 3 -41 -18 -38 -73 -63 -122 -57 -31 4 -35 8 -26 19
6 8 20 14 30 14 11 0 19 5 19 11 0 7 -7 8 -17 4 -10 -4 -27 -10 -38 -13 -18
-5 -19 -4 -5 13 14 17 13 18 -2 12 -20 -7 -22 -4 -9 21 5 9 14 29 19 44 8 20
19 28 44 31 18 2 35 4 38 5 3 1 15 -1 28 -4z m1513 -55 c34 -37 36 -46 9 -54
-13 -4 -19 -14 -17 -28 2 -19 -3 -22 -45 -25 -39 -3 -49 1 -62 20 -16 22 -16
22 -16 -12 -1 -19 -9 -51 -19 -70 -18 -32 -22 -35 -70 -36 -55 -1 -56 0 -66
68 -7 44 -6 46 36 81 48 42 59 45 52 17 -3 -11 -9 -20 -14 -20 -5 0 -9 -6 -9
-12 1 -7 11 0 24 16 21 25 29 28 60 23 43 -7 49 9 6 18 -54 12 -43 25 22 25
44 0 59 3 48 10 -12 8 -10 10 8 10 14 0 36 -13 53 -31z m-2207 -65 c84 -54
287 -155 331 -164 27 -5 31 -11 36 -50 4 -25 5 -47 3 -49 -7 -8 -180 62 -277
111 -54 28 -124 70 -156 93 -32 23 -67 48 -79 54 -26 14 -29 48 -4 54 34 10
76 -4 146 -49z m431 10 l31 -33 -35 -4 -36 -3 32 -8 c37 -9 35 -26 -3 -26 -13
0 -24 -5 -24 -11 0 -7 10 -9 25 -7 35 7 31 -8 -7 -33 -25 -15 -43 -18 -72 -14
-67 10 -74 18 -72 82 l1 58 45 23 c52 26 72 22 115 -24z m1310 -70 c-49 -41
-194 -119 -290 -157 -121 -48 -297 -93 -425 -108 -145 -16 -462 0 -488 25 -2
3 7 18 19 35 15 21 28 29 39 25 42 -17 93 -24 105 -14 8 7 78 12 177 14 236 4
387 38 625 142 76 33 115 44 155 45 29 0 62 4 73 9 36 16 40 10 10 -16z
m-1088 -5 c50 -24 73 -53 73 -91 0 -21 -5 -28 -19 -28 -14 0 -18 -5 -14 -20
14 -52 -86 -24 -124 35 -28 43 -32 75 -6 54 15 -13 15 -12 4 9 -9 18 -9 23 1
26 39 13 42 14 20 15 -26 1 -20 21 5 21 9 0 36 -9 60 -21z m-116 -66 c25 -59
19 -100 -21 -138 -24 -23 -32 -26 -44 -16 -8 7 -24 10 -35 6 -27 -8 -51 29
-51 80 0 46 6 57 39 75 23 12 23 11 19 -14 -7 -33 0 -34 12 -1 11 30 30 33 30
6 0 -21 17 -37 28 -26 3 3 1 9 -5 13 -10 6 -7 62 4 62 2 0 13 -21 24 -47z"/>
<path d="M5846 3051 c-10 -11 -41 -35 -68 -52 l-49 -32 21 -21 c11 -12 20 -31
20 -42 1 -46 16 -46 65 -1 l48 43 -9 63 c-9 63 -9 63 -28 42z"/>
<path d="M6135 2932 c-44 -24 -50 -31 -52 -62 -1 -19 -5 -51 -10 -70 -11 -47
-6 -90 12 -84 7 3 11 14 8 25 -6 23 5 24 35 3 12 -8 26 -13 31 -10 11 7 34
163 29 199 l-3 26 -50 -27z"/>
<path d="M6925 2818 c-52 -28 -75 -61 -75 -105 0 -32 5 -45 20 -53 14 -8 20
-8 20 0 0 6 12 2 26 -9 30 -24 56 -26 103 -10 43 15 43 41 -1 29 -21 -7 -39
-6 -57 3 -22 10 -26 20 -29 59 -3 40 1 52 22 73 20 20 22 25 8 25 -9 0 -26 -6
-37 -12z"/>
</g>
</svg>
