<?xml version="1.0" standalone="no"?>
<!DOCTYPE svg PUBLIC "-//W3C//DTD SVG 20010904//EN"
 "http://www.w3.org/TR/2001/REC-SVG-20010904/DTD/svg10.dtd">
<svg version="1.0" xmlns="http://www.w3.org/2000/svg"
 width="500.000000pt" height="500.000000pt" viewBox="0 0 500.000000 500.000000"
 preserveAspectRatio="xMidYMid meet">

<g transform="translate(0.000000,500.000000) scale(0.100000,-0.100000)"
fill="#000000" stroke="none">
<path d="M2805 3413 c-82 -18 -263 -63 -277 -68 -12 -5 -22 3 -38 32 -12 21
-18 29 -14 18 21 -62 26 -58 -123 -111 -159 -56 -362 -153 -513 -244 -109 -65
-259 -170 -260 -181 0 -4 15 -10 33 -13 17 -4 43 -15 56 -25 l24 -19 102 83
c173 140 335 240 561 348 150 71 158 72 152 13 -7 -62 -38 -100 -126 -152 -43
-26 -68 -43 -57 -39 108 39 195 45 240 15 17 -11 47 -48 69 -82 21 -35 35 -54
31 -43 -17 50 -28 123 -21 158 9 49 62 99 151 142 82 40 82 43 0 14 -121 -42
-210 -33 -249 26 -15 23 -15 23 60 51 42 15 117 40 167 55 79 24 97 37 32 22z"/>
<path d="M3025 3149 c-44 -5 -123 -17 -175 -27 l-95 -19 140 5 c335 11 572
-63 669 -209 l31 -47 83 -3 c69 -3 86 -8 98 -23 8 -12 11 -29 8 -40 -6 -17 1
-14 34 14 35 30 41 39 36 65 -6 39 -66 127 -110 160 -144 110 -413 156 -719
124z"/>
<path d="M1460 2815 c-98 -31 -168 -126 -178 -240 -8 -111 40 -160 158 -159
74 1 121 18 171 62 63 55 105 174 89 249 -20 87 -122 124 -240 88z m94 -101
c-2 -63 -48 -205 -74 -229 -10 -9 -27 -15 -37 -13 -25 5 -23 72 5 163 29 95
56 137 85 133 20 -3 22 -8 21 -54z"/>
<path d="M1508 2715 c-24 -45 -60 -171 -56 -197 3 -21 6 -19 25 18 26 49 55
158 51 188 -3 19 -5 18 -20 -9z"/>
<path d="M913 2785 c7 -45 -64 -299 -93 -330 -27 -28 -18 -35 46 -35 57 0 70
9 55 38 -8 16 7 89 42 197 2 5 27 -40 56 -100 56 -118 70 -135 113 -135 38 0
51 23 93 175 20 72 38 138 41 148 3 10 15 26 26 37 29 27 14 40 -47 40 -57 0
-75 -11 -55 -35 13 -15 11 -27 -17 -125 l-16 -54 -44 89 c-62 124 -63 125
-141 125 l-65 0 6 -35z"/>
<path d="M1774 2794 c-10 -14 -18 -44 -18 -67 -1 -57 21 -59 77 -8 41 38 67
51 67 33 0 -4 -4 -22 -9 -40 -9 -31 -9 -32 17 -26 15 3 32 7 39 9 7 2 26 31
43 65 l30 60 -115 0 c-112 0 -115 -1 -131 -26z"/>
<path d="M2013 2748 l-38 -72 -85 -19 c-47 -10 -89 -22 -93 -26 -4 -4 20 -16
53 -26 34 -10 63 -22 66 -27 3 -5 -15 -47 -40 -95 -26 -47 -45 -88 -43 -90 2
-2 48 31 102 72 53 41 101 75 104 75 4 0 29 -7 55 -16 26 -9 50 -14 53 -11 3
3 -2 26 -10 51 l-16 45 95 72 c52 40 94 73 94 74 0 1 -44 -8 -97 -21 -54 -13
-103 -24 -110 -24 -7 0 -20 25 -28 55 -9 30 -18 55 -20 55 -2 0 -21 -32 -42
-72z"/>
<path d="M2090 2811 c0 -4 5 -23 11 -40 11 -30 15 -32 42 -27 16 3 33 6 38 6
17 0 31 41 18 56 -12 15 -109 20 -109 5z"/>
<path d="M2243 2804 c-11 -29 11 -35 78 -19 35 8 68 15 72 15 5 0 -31 -31 -80
-69 l-89 -69 -21 -76 c-12 -42 -19 -84 -17 -94 3 -11 -3 -21 -18 -27 -13 -5
-24 -18 -26 -28 -3 -16 5 -17 95 -15 l98 3 -3 36 c-4 46 64 288 89 315 35 38
25 44 -76 44 -78 0 -97 -3 -102 -16z"/>
<path d="M2487 2814 c-3 -3 -3 -20 0 -37 6 -42 -62 -285 -89 -314 -32 -35 -15
-43 93 -43 91 0 99 2 99 19 0 11 -5 21 -12 23 -9 3 -9 17 1 61 14 64 39 77 59
32 27 -59 72 -16 88 84 6 38 5 41 -16 41 -12 0 -33 -9 -47 -20 -45 -36 -53
-27 -35 40 l16 61 40 -3 c36 -3 41 -7 50 -35 19 -67 76 -47 90 32 12 62 4 65
-174 65 -86 0 -159 -3 -163 -6z"/>
<path d="M2865 2810 c-3 -6 -3 -19 0 -30 8 -26 -60 -277 -86 -312 -10 -15 -19
-32 -19 -38 0 -13 197 -14 205 0 3 5 0 18 -6 29 -10 15 -10 31 0 75 11 52 15
56 41 56 35 0 41 -16 28 -69 -8 -30 -8 -49 0 -66 22 -47 122 -50 166 -5 l21
22 -21 14 c-18 12 -21 22 -17 58 4 31 1 47 -11 58 -20 20 -20 28 -2 28 8 0 26
14 40 31 48 56 28 120 -47 148 -36 14 -284 15 -292 1z m205 -65 c26 -31 -11
-95 -55 -95 -22 0 -22 2 -14 43 5 23 12 48 14 55 6 17 40 15 55 -3z"/>
<path d="M3322 2789 c3 -19 -11 -86 -33 -168 -22 -75 -39 -137 -39 -138 0 -1
-10 -11 -22 -23 -34 -32 -12 -41 88 -38 l89 3 -2 29 c-4 47 73 306 97 328 11
10 18 23 15 29 -4 5 -49 9 -102 9 l-95 0 4 -31z"/>
<path d="M3565 2810 c-3 -6 -4 -19 0 -29 3 -10 -13 -83 -35 -162 -29 -105 -46
-148 -61 -160 -38 -28 -14 -39 86 -39 96 0 112 7 93 40 -10 17 12 102 27 107
6 2 18 -24 27 -56 25 -83 36 -91 118 -91 38 0 72 4 75 10 3 5 -3 22 -14 37
-12 16 -34 69 -51 118 l-31 90 22 18 c12 10 29 15 37 12 41 -16 60 -15 82 3
26 21 32 71 10 96 -27 34 -66 19 -157 -58 -48 -41 -89 -73 -91 -71 -9 9 23 92
40 106 12 9 18 21 14 28 -9 14 -182 15 -191 1z"/>
<path d="M4035 2810 c-3 -5 -3 -20 0 -33 8 -30 -60 -272 -86 -309 -32 -46 -27
-49 79 -46 l97 3 -3 36 c-4 46 64 288 89 315 35 38 25 44 -75 44 -52 0 -97 -4
-101 -10z"/>
<path d="M3836 2671 c-4 -5 -3 -17 0 -26 5 -13 8 -14 15 -3 5 7 9 19 9 26 0
14 -16 16 -24 3z"/>
<path d="M1840 2531 c-6 -27 -20 -57 -31 -67 -22 -20 -25 -44 -6 -44 14 0 89
144 80 154 -17 17 -32 1 -43 -43z"/>
<path d="M1231 2479 c-30 -48 -61 -134 -73 -201 -26 -147 56 -286 213 -361
141 -68 299 -91 524 -77 113 7 323 35 332 44 2 1 -81 3 -184 3 -171 0 -197 2
-286 26 -168 45 -277 119 -329 224 -20 41 -23 63 -23 150 l0 102 -32 6 c-40 7
-92 50 -108 89 l-13 30 -21 -35z"/>
<path d="M3675 2464 c9 -57 -15 -74 -106 -74 l-67 0 -50 -62 c-151 -188 -371
-358 -684 -526 -69 -37 -252 -122 -263 -122 -3 0 -5 23 -5 50 0 84 25 116 144
181 61 34 60 35 -22 9 -126 -39 -181 -23 -243 72 -21 34 -39 58 -39 55 0 -3 6
-31 14 -61 29 -111 -8 -172 -146 -241 -40 -20 -64 -33 -53 -29 184 62 255 59
309 -13 10 -14 14 -28 10 -33 -8 -7 -275 -100 -329 -114 -11 -3 0 -3 25 0 25
3 105 21 179 40 74 19 140 34 146 34 6 0 19 -15 29 -32 9 -18 14 -24 10 -13
-16 50 -16 55 2 61 109 37 330 132 458 197 256 130 494 300 639 457 91 98 91
97 61 155 l-26 50 7 -41z"/>
<path d="M1935 2444 l-30 -25 40 3 c32 2 40 7 40 22 0 28 -16 28 -50 0z"/>
<path d="M1538 2319 c-10 -5 -18 -21 -18 -34 0 -20 7 -25 35 -31 20 -3 35 -12
35 -20 0 -16 -36 -19 -45 -4 -3 6 -13 10 -21 10 -12 0 -12 -4 -4 -20 11 -20
51 -27 84 -14 22 8 21 53 -1 60 -10 3 -29 10 -43 16 -22 8 -23 11 -8 19 12 6
24 5 37 -3 27 -16 41 0 17 18 -23 16 -44 17 -68 3z"/>
<path d="M1680 2310 c0 -5 9 -10 20 -10 17 0 20 -7 20 -50 0 -38 4 -50 15 -50
11 0 15 12 15 50 0 43 3 50 20 50 11 0 20 4 20 8 0 5 -25 10 -55 11 -32 1 -55
-3 -55 -9z"/>
<path d="M1850 2260 c0 -47 3 -60 15 -60 9 0 15 9 15 25 0 18 5 25 20 25 13 0
22 -9 26 -25 3 -14 12 -25 19 -25 10 0 11 7 5 28 -4 16 -4 36 1 44 18 32 0 48
-52 48 l-49 0 0 -60z m75 25 c0 -5 -10 -11 -22 -13 -16 -2 -23 2 -23 13 0 11
7 15 23 13 12 -2 22 -7 22 -13z"/>
<path d="M2020 2260 l0 -60 50 0 c28 0 50 5 50 10 0 6 -16 10 -35 10 -24 0
-35 5 -35 15 0 10 10 15 30 15 17 0 30 5 30 10 0 6 -13 10 -30 10 -20 0 -30 5
-30 15 0 10 11 15 35 15 19 0 35 5 35 10 0 6 -22 10 -50 10 l-50 0 0 -60z"/>
<path d="M2180 2260 l0 -60 50 0 c28 0 50 5 50 10 0 6 -16 10 -35 10 -24 0
-35 5 -35 15 0 10 10 15 29 15 41 0 49 18 9 22 -46 4 -49 28 -4 28 20 0 36 5
36 10 0 6 -22 10 -50 10 l-50 0 0 -60z"/>
<path d="M2340 2310 c0 -5 9 -10 20 -10 17 0 20 -7 20 -50 0 -38 4 -50 15 -50
11 0 15 12 15 50 0 43 3 50 20 50 11 0 20 5 20 10 0 6 -25 10 -55 10 -30 0
-55 -4 -55 -10z"/>
<path d="M2513 2306 c3 -7 9 -35 12 -60 7 -43 10 -47 33 -44 22 3 28 10 36 48
l10 45 10 -47 c8 -40 13 -48 32 -48 29 0 31 4 40 68 4 36 3 52 -5 52 -6 0 -13
-12 -17 -27 -13 -65 -21 -70 -28 -20 -6 41 -10 47 -31 47 -20 0 -25 -7 -31
-35 -9 -50 -20 -51 -28 -5 -4 27 -11 40 -22 40 -10 0 -14 -6 -11 -14z"/>
<path d="M2760 2260 l0 -60 50 0 c28 0 50 5 50 10 0 6 -16 10 -35 10 -24 0
-35 5 -35 15 0 10 10 15 30 15 17 0 30 5 30 10 0 6 -13 10 -30 10 -20 0 -30 5
-30 15 0 10 10 15 29 15 17 0 33 5 36 10 4 6 -13 10 -44 10 l-51 0 0 -60z"/>
<path d="M2953 2303 c-3 -10 -12 -33 -19 -52 -8 -18 -14 -37 -14 -42 0 -15 27
-10 34 6 7 20 46 19 62 -2 22 -31 26 -6 8 51 -15 47 -21 56 -41 56 -13 0 -26
-8 -30 -17z m41 -29 c9 -23 8 -24 -13 -24 -14 0 -18 5 -14 20 6 24 19 26 27 4z"/>
<path d="M3110 2261 c0 -48 3 -61 15 -61 9 0 15 9 15 25 0 16 6 25 15 25 9 0
20 -11 25 -25 16 -43 29 -28 27 33 l-2 57 -47 3 -48 3 0 -60z m70 24 c0 -8 -9
-15 -20 -15 -11 0 -20 7 -20 15 0 8 9 15 20 15 11 0 20 -7 20 -15z"/>
<path d="M2320 2095 c0 -5 5 -17 10 -25 5 -8 10 -10 10 -5 0 6 -5 17 -10 25
-5 8 -10 11 -10 5z"/>
<path d="M2248 1893 c7 -3 16 -2 19 1 4 3 -2 6 -13 5 -11 0 -14 -3 -6 -6z"/>
</g>
</svg>
